<?xml version="1.0" standalone="no"?><!DOCTYPE svg PUBLIC "-//W3C//DTD SVG 1.1//EN" "http://www.w3.org/Graphics/SVG/1.1/DTD/svg11.dtd"><svg t="1574236012165" class="icon" viewBox="0 0 1024 1024" version="1.1" xmlns="http://www.w3.org/2000/svg" p-id="12592" xmlns:xlink="http://www.w3.org/1999/xlink" width="200" height="200"><defs><style type="text/css"></style></defs><path d="M507.484372 498.742115m-435.162069 0a435.162069 435.162069 0 1 0 870.324137 0 435.162069 435.162069 0 1 0-870.324137 0Z" fill="#E9EAEB" p-id="12593"></path><path d="M824.517604 866.350385a90.240316 90.240316 0 0 0-127.160093-113.071333c-8.597756-31.428773-42.772031-61.051295-77.018557-61.051295H395.78579A74.273054 74.273054 0 0 0 321.512735 765.850561v1.300501a81.209059 81.209059 0 0 0-97.537571 79.475058 80.703309 80.703309 0 0 0 8.959007 36.992027v0.36125a81.42581 81.42581 0 0 0-40.09878 70.227052c0 13.14951 18.785014 49.057786 24.276018 60.039794h612.391449l45.011783-67.048049c4.985254-27.74402-19.941015-66.253299-49.997037-80.847809z" fill="#FFFFFF" p-id="12594"></path><path d="M187.344387 998.206731a96.598321 96.598321 0 0 1-10.331757-43.783532 98.115572 98.115572 0 0 1 36.125026-75.862556 95.87582 95.87582 0 0 1-5.346504-31.645523 97.609821 97.609821 0 0 1 98.982573-97.248571 90.529316 90.529316 0 0 1 88.867565-73.911804 364.140267 364.140267 0 0 0 37.281027-7.225005c27.09377-5.996754 57.800042-12.860509 76.440556-12.86051 21.169266 0 53.826289 9.609257 82.581811 18.062513a307.496225 307.496225 0 0 0 33.885274 8.959007 90.457066 90.457066 0 0 1 80.269809 49.202286 106.352078 106.352078 0 0 1 137.780851 127.160093c30.778523 21.241516 51.947788 60.762295 46.818034 91.035067l-31.790023-5.346504c3.395752-20.446765-17.123263-52.092288-41.47153-63.941297l-13.58301-6.574755 5.707754-13.94426a74.128554 74.128554 0 0 0-104.473577-92.913568l-17.918013 9.898257-5.418754-19.724264a58.233543 58.233543 0 0 0-55.993791-42.699781c-7.658506 0-19.941015-3.540253-42.844281-10.259508-24.059268-7.225005-57.005292-16.762012-73.550554-16.762012-15.028011 0-45.156283 6.719255-69.432301 12.138009A271.732449 271.732449 0 0 1 395.78579 708.050519a58.161293 58.161293 0 0 0-57.800042 57.800042 5.996754 5.996754 0 0 1 0 1.083751v20.085514l-19.652015-4.046003a65.025048 65.025048 0 0 0-78.246807 63.724547 64.158047 64.158047 0 0 0 7.225005 29.261272l7.730756 13.438509-13.51076 8.453257A65.747548 65.747548 0 0 0 209.525153 954.423199a64.591547 64.591547 0 0 0 7.225006 29.261271z" fill="#2A5082" p-id="12595"></path><path d="M667.590489 830.875609h-32.223524a105.196077 105.196077 0 0 1 105.051577-105.051577v32.223523A72.972553 72.972553 0 0 0 667.590489 830.875609zM795.256332 921.982925l-16.111761-27.88852a73.189304 73.189304 0 0 0 36.125026-63.074296h32.223524a105.485077 105.485077 0 0 1-52.236789 90.962816zM250.563184 923.572426a105.990828 105.990828 0 0 1-34.463276-36.125026l27.888521-16.184012a73.622804 73.622804 0 0 0 23.914767 24.998518zM505.75037 932.025683h-32.368023a105.196077 105.196077 0 0 1 105.051577-105.051577v32.223523A72.900303 72.900303 0 0 0 505.75037 932.025683zM739.623792 1017.136245a105.196077 105.196077 0 0 1-105.051577-105.051577h32.223523a72.900303 72.900303 0 0 0 72.828054 72.828053z" fill="#2A5082" p-id="12596"></path><path d="M501.343117 875.381641a72.250053 72.250053 0 0 0-54.98229-30.923023l2.023001-32.151273a104.545827 104.545827 0 0 1 79.475059 44.578283zM359.371763 811.729345a63.869047 63.869047 0 0 0-54.25979-29.839272v-32.223524A95.94807 95.94807 0 0 1 386.610033 794.750582z" fill="#2A5082" p-id="12597"></path><path d="M691.649757 692.733507c34.752275-3.540253 57.800042-34.824526 57.800042-69.721301V321.657236c0-53.320539-33.524025-98.043322-53.176039-120.224088a16.400762 16.400762 0 0 0-26.226769 0c-19.724264 22.108516-49.491286 66.903549-49.491286 120.224088v304.533973a65.025048 65.025048 0 0 0 71.094052 66.542298z" fill="#E9EAEB" p-id="12598"></path><path d="M684.786002 709.206519a78.680308 78.680308 0 0 1-53.248289-20.446765 84.315812 84.315812 0 0 1-27.31052-62.568545V321.657236c0-63.796797 37.497777-112.782333 53.609539-130.917096a33.668525 33.668525 0 0 1 25.143018-11.993509A33.668525 33.668525 0 0 1 708.050519 190.74014c26.154519 29.333521 57.222042 75.934806 57.222042 130.917096v301.35497c0 44.722783-30.995273 81.64256-72.250053 85.760813q-4.046003 0.4335-8.236506 0.4335z m-1.806252-498.091864a6.430255 6.430255 0 0 0-1.083751 1.0115C671.202992 223.975164 636.450716 267.325196 636.450716 321.657236v304.533973A52.020038 52.020038 0 0 0 653.140478 664.700487a47.107035 47.107035 0 0 0 36.919777 11.849009c28.322021-2.890002 43.350032-28.900021 43.350032-53.68179V321.657236c0-47.251535-30.778523-88.867565-49.130036-109.531081a6.430255 6.430255 0 0 0-1.300501-1.0115z" fill="#2A5082" p-id="12599"></path><path d="M321.006985 692.733507c34.752275-3.540253 57.800042-34.824526 57.800042-69.721301V321.657236c0-53.609539-30.634022-98.621322-50.575037-120.585339a17.773513 17.773513 0 0 0-27.166019 0c-19.652014 21.675016-51.514288 66.975799-51.514288 120.585339v304.533973a65.025048 65.025048 0 0 0 71.455302 66.542298z" fill="#E9EAEB" p-id="12600"></path><path d="M314.07098 709.206519a78.680308 78.680308 0 0 1-53.248289-20.446765 84.315812 84.315812 0 0 1-27.31052-62.568545V321.657236c0-62.351796 38.870528-112.637832 55.560291-131.350597a33.885275 33.885275 0 0 1 51.225287 0c16.328512 18.279263 54.33204 67.77055 54.33204 131.350597v301.35497c0 44.722783-30.995273 81.64256-72.250053 85.760813q-4.046003 0.4335-8.308756 0.4335z m0.650251-498.525365a2.384252 2.384252 0 0 0-1.589502 0.939251c-14.450011 15.967262-47.396035 58.594793-47.396034 109.82008v304.750724A52.020038 52.020038 0 0 0 282.425457 664.700487a47.179285 47.179285 0 0 0 36.919777 11.849009c28.322021-2.890002 43.350032-28.900021 43.350032-53.68179V321.657236c0-53.97079-35.330276-97.754322-46.167784-109.892331a2.384252 2.384252 0 0 0-1.806251-0.939251z" fill="#2A5082" p-id="12601"></path><path d="M499.464616 20.013265c-75.356805 0-137.275101 85.038312-137.275101 167.258872v472.659846h274.261201V187.272137c0-82.22056-61.629295-167.258873-136.9861-167.258872z" fill="#A3D4FF" p-id="12602"></path><path d="M652.562478 676.043745H346.366754V187.272137C346.366754 100.716574 411.825302 3.901503 499.464616 3.901503s153.097862 96.815071 153.097862 183.370634zM378.590277 643.820222h241.748677V187.272137C620.338954 117.406336 567.524166 36.125026 499.464616 36.125026S378.590277 117.406336 378.590277 187.272137z" fill="#2A5082" p-id="12603"></path><path d="M572.003669 547.077401v-161.117618a196.447894 196.447894 0 0 0-32.223524-112.854583c-11.126508-17.051012-53.320539-17.051012-64.447047 0a196.447894 196.447894 0 0 0-32.223523 112.782333v161.189868L330.254992 643.820222v48.335285h112.782332l32.223524 32.223524h65.025048l31.356523-32.223524h113.143583v-48.335285z" fill="#FFFFFF" p-id="12604"></path><path d="M468.613843 740.490792L436.39032 708.050519H314.14323v-71.672053L426.925563 539.707895V385.959783a212.270655 212.270655 0 0 1 34.896775-121.669089c8.236506-12.571509 25.287519-20.085515 45.734284-20.085515s37.497777 7.225005 45.734283 20.085515a212.270655 212.270655 0 0 1 34.824526 121.669089V539.707895L700.825513 636.378466V708.050519H578.795174l-31.356523 32.223523z m-122.247089-64.447047h103.317575L481.980103 708.050519h51.875538l31.356523-32.223524h103.462076v-24.565018L555.891907 554.519156V385.959783A181.419883 181.419883 0 0 0 526.269385 281.775206a34.824526 34.824526 0 0 0-37.497777 0 181.419883 181.419883 0 0 0-29.622522 103.967827v168.776123L346.366754 651.261977z" fill="#2A5082" p-id="12605"></path><path d="M491.37261 579.373174h32.223523v80.558809h-32.223523z" fill="#2A5082" p-id="12606"></path></svg>