<?xml version="1.0" standalone="no"?><!DOCTYPE svg PUBLIC "-//W3C//DTD SVG 1.1//EN" "http://www.w3.org/Graphics/SVG/1.1/DTD/svg11.dtd"><svg t="1574235895282" class="icon" viewBox="0 0 1024 1024" version="1.1" xmlns="http://www.w3.org/2000/svg" p-id="2501" xmlns:xlink="http://www.w3.org/1999/xlink" width="200" height="200"><defs><style type="text/css"></style></defs><path d="M318.272 570.624c-58.784 69.584-79.904 146.368-46.272 180 33.632 33.632 110.416 12.512 180-46.272" fill="#FF5252" p-id="2502"></path><path d="M316.4 774.464c-20.448 0-37.776-5.904-50.048-18.192-36.256-36.256-16.976-116.496 45.824-190.816a8 8 0 1 1 12.224 10.304c-56.368 66.72-76.464 139.456-46.72 169.184 29.696 29.728 102.448 9.632 169.184-46.72a8 8 0 1 1 10.336 12.224c-49.168 41.536-100.896 64.016-140.8 64.016z" fill="#263238" p-id="2503"></path><path d="M605.632 190.832L338.032 491.872a40 40 0 0 0 1.616 54.864l138.992 138.992a40 40 0 0 0 54.864 1.616l301.04-267.6a239.904 239.904 0 0 0 80.48-173.792l3.232-138.832-138.832 3.232a239.888 239.888 0 0 0-173.792 80.48z" fill="#40C4FF" p-id="2504"></path><path d="M506.944 705.424c-12.336 0-24.64-4.704-33.968-14.048l-138.992-138.992a48.048 48.048 0 0 1-1.936-65.824l267.6-301.04a248.752 248.752 0 0 1 179.584-83.168l138.832-3.232a8.032 8.032 0 0 1 8.176 8.176l-3.232 138.832a248.96 248.96 0 0 1-83.168 179.616L538.8 693.328a47.888 47.888 0 0 1-31.856 12.096z m98.688-514.592l5.984 5.312L344 497.184a32.032 32.032 0 0 0 1.296 43.888l138.992 138.992a32.032 32.032 0 0 0 43.888 1.296L829.232 413.76a232.72 232.72 0 0 0 77.792-168.016l3.04-130.448-130.448 3.04a232.72 232.72 0 0 0-168 77.792l-5.984-5.296z" fill="#263238" p-id="2505"></path><path d="M802.656 391.872a8 8 0 0 1-5.312-13.984 184.528 184.528 0 0 0 61.696-133.248l2.064-88.56a7.968 7.968 0 0 1 8.192-7.808 8 8 0 0 1 7.808 8.192l-2.064 88.56a200.72 200.72 0 0 1-67.072 144.848 8.112 8.112 0 0 1-5.312 2zM358.016 429.216a7.84 7.84 0 0 1-4.256-1.232 390.112 390.112 0 0 0-67.68-34.112l-67.856-26.112a8 8 0 0 1 0.208-15.024l74.576-26.32c47.664-16.816 99.072-18.368 148.624-4.56a8 8 0 0 1-4.304 15.408c-46.4-12.96-94.448-11.472-138.992 4.256l-54.112 19.088 47.6 18.32c24 9.216 47.712 21.168 70.464 35.52a8 8 0 0 1-4.272 14.768zM662.336 809.536a8 8 0 0 1-7.472-5.12l-26.096-67.84a391.952 391.952 0 0 0-32.064-64.464 8 8 0 0 1 13.632-8.384 408.656 408.656 0 0 1 33.376 67.088l18.304 47.6 19.088-54.096c15.264-43.232 17.136-89.936 5.44-135.056a8 8 0 0 1 15.472-4.032c12.512 48.24 10.496 98.176-5.824 144.4l-26.32 74.56a8 8 0 0 1-7.44 5.344h-0.096z" fill="#263238" p-id="2506"></path><path d="M634.029131 388.590216a80 80 0 1 0 113.13511-113.139059 80 80 0 1 0-113.13511 113.139059Z" fill="#FFFFFF" p-id="2507"></path><path d="M690.608 419.984a87.76 87.76 0 0 1-62.224-25.728 87.424 87.424 0 0 1-25.776-62.24c0-23.504 9.152-45.616 25.776-62.224a87.424 87.424 0 0 1 62.224-25.776c23.504 0 45.616 9.152 62.224 25.776a87.392 87.392 0 0 1 25.776 62.224c0 23.52-9.152 45.616-25.776 62.24a87.712 87.712 0 0 1-62.224 25.728z m0-159.968a71.52 71.52 0 0 0-50.912 21.088c-13.6 13.6-21.088 31.664-21.088 50.912s7.488 37.312 21.088 50.928a72.128 72.128 0 0 0 101.824 0c13.6-13.616 21.088-31.68 21.088-50.928s-7.488-37.312-21.088-50.912a71.52 71.52 0 0 0-50.912-21.088z" fill="#263238" p-id="2508"></path><path d="M341.376 593.712c-33.984 44.048-45.184 90.576-24.112 111.648 21.072 21.072 67.616 9.872 111.648-24.112" fill="#FFD740" p-id="2509"></path><path d="M347.056 724.144c-14.4 0-26.64-4.304-35.456-13.104-23.92-23.92-14.496-73.024 23.44-122.208a8 8 0 0 1 12.672 9.776c-31.776 41.168-42.208 83.696-24.8 101.104 17.392 17.392 59.936 6.976 101.104-24.784a8 8 0 1 1 9.792 12.656c-31.056 23.968-62.08 36.56-86.752 36.56zM105.744 653.36a8 8 0 0 1-5.664-13.648l11.312-11.312a8 8 0 0 1 11.312 11.312l-11.312 11.312a7.968 7.968 0 0 1-5.648 2.336zM139.68 619.424a8 8 0 0 1-5.664-13.648l124.448-124.448a8 8 0 0 1 11.312 11.312l-124.448 124.448a7.968 7.968 0 0 1-5.648 2.336zM377.28 924.896a8 8 0 0 1-5.664-13.648l11.312-11.312a8 8 0 0 1 11.312 11.312l-11.312 11.312a8 8 0 0 1-5.648 2.336zM411.216 890.96a8 8 0 0 1-5.664-13.648l124.448-124.448a8 8 0 0 1 11.312 11.312l-124.448 124.448a7.968 7.968 0 0 1-5.648 2.336z" fill="#263238" p-id="2510"></path><path d="M240 120h-64a8 8 0 0 1 0-16h64a8 8 0 0 1 0 16z" fill="#263238" p-id="2511"></path><path d="M208 152a8 8 0 0 1-8-8V80a8 8 0 0 1 16 0v64a8 8 0 0 1-8 8z" fill="#263238" p-id="2512"></path><path d="M128 224H64a8 8 0 0 1 0-16h64a8 8 0 0 1 0 16z" fill="#263238" p-id="2513"></path><path d="M96 256a8 8 0 0 1-8-8v-64a8 8 0 0 1 16 0v64a8 8 0 0 1-8 8z" fill="#263238" p-id="2514"></path></svg>