<?xml version="1.0" standalone="no"?><!DOCTYPE svg PUBLIC "-//W3C//DTD SVG 1.1//EN" "http://www.w3.org/Graphics/SVG/1.1/DTD/svg11.dtd"><svg t="1574235916701" class="icon" viewBox="0 0 1024 1024" version="1.1" xmlns="http://www.w3.org/2000/svg" p-id="2678" xmlns:xlink="http://www.w3.org/1999/xlink" width="200" height="200"><defs><style type="text/css"></style></defs><path d="M776 512h-432V160h432a16 16 0 0 1 16 16v320a16 16 0 0 1-16 16z" fill="#FFD740" p-id="2679"></path><path d="M776 520h-432a8 8 0 0 1-8-8V160a8 8 0 0 1 8-8h432c13.232 0 24 10.768 24 24v320c0 13.232-10.768 24-24 24z m-424-16h424a8 8 0 0 0 8-8V176a8 8 0 0 0-8-8H352v336z" fill="#263238" p-id="2680"></path><path d="M792 344h-448a8 8 0 0 1 0-16h448a8 8 0 0 1 0 16zM400 280c-17.648 0-32-14.352-32-32s14.352-32 32-32 32 14.352 32 32-14.352 32-32 32z m0-48c-8.816 0-16 7.184-16 16s7.184 16 16 16 16-7.184 16-16-7.184-16-16-16zM400 456c-17.648 0-32-14.352-32-32s14.352-32 32-32 32 14.352 32 32-14.352 32-32 32z m0-48c-8.816 0-16 7.184-16 16s7.184 16 16 16 16-7.184 16-16-7.184-16-16-16zM736 280c-17.648 0-32-14.352-32-32s14.352-32 32-32 32 14.352 32 32-14.352 32-32 32z m0-48a16.016 16.016 0 0 0 0 32 16.016 16.016 0 0 0 0-32zM736 456c-17.648 0-32-14.352-32-32s14.352-32 32-32 32 14.352 32 32-14.352 32-32 32z m0-48a16.016 16.016 0 0 0 0 32 16.016 16.016 0 0 0 0-32zM168 440C110.656 440 64 393.344 64 336s46.656-104 104-104S272 278.656 272 336s-46.656 104-104 104z m0-192C119.472 248 80 287.472 80 336s39.472 88 88 88S256 384.528 256 336s-39.472-88-88-88z" fill="#263238" p-id="2681"></path><path d="M168 392C137.12 392 112 366.88 112 336s25.12-56 56-56S224 305.12 224 336s-25.12 56-56 56z m0-96C145.952 296 128 313.952 128 336s17.952 40 40 40S208 358.048 208 336s-17.952-40-40-40z" fill="#263238" p-id="2682"></path><path d="M104 408a8 8 0 0 1-5.664-13.648l128-128a8 8 0 0 1 11.312 11.312l-128 128a7.968 7.968 0 0 1-5.648 2.336z" fill="#263238" p-id="2683"></path><path d="M232 408a8.032 8.032 0 0 1-5.664-2.336l-128-128a8 8 0 0 1 11.312-11.312l128 128a8 8 0 0 1-5.648 13.648z" fill="#263238" p-id="2684"></path><path d="M256 472H80c-26.464 0-48-21.536-48-48v-176c0-26.464 21.536-48 48-48h176c26.464 0 48 21.536 48 48v176c0 26.464-21.536 48-48 48z m-176-256c-17.648 0-32 14.352-32 32v176c0 17.648 14.352 32 32 32h176c17.648 0 32-14.352 32-32v-176c0-17.648-14.352-32-32-32H80z" fill="#263238" p-id="2685"></path><path d="M344 520h-240c-13.232 0-24-10.768-24-24v-32a8 8 0 0 1 16 0v32a8 8 0 0 0 8 8H336v-336H104a8 8 0 0 0-8 8v32a8 8 0 0 1-16 0v-32c0-13.232 10.768-24 24-24h240a8 8 0 0 1 8 8v352a8 8 0 0 1-8 8z" fill="#263238" p-id="2686"></path><path d="M776 864h-432V512h432a16 16 0 0 1 16 16v320a16 16 0 0 1-16 16z" fill="#FFD740" p-id="2687"></path><path d="M776 872h-432a8 8 0 0 1-8-8V512a8 8 0 0 1 8-8h432c13.232 0 24 10.768 24 24v320c0 13.232-10.768 24-24 24z m-424-16h424a8 8 0 0 0 8-8V528a8 8 0 0 0-8-8H352v336z" fill="#263238" p-id="2688"></path><path d="M792 696h-448a8 8 0 0 1 0-16h448a8 8 0 0 1 0 16zM400 632c-17.648 0-32-14.352-32-32s14.352-32 32-32 32 14.352 32 32-14.352 32-32 32z m0-48c-8.816 0-16 7.184-16 16s7.184 16 16 16 16-7.184 16-16-7.184-16-16-16zM400 808c-17.648 0-32-14.352-32-32s14.352-32 32-32 32 14.352 32 32-14.352 32-32 32z m0-48c-8.816 0-16 7.184-16 16s7.184 16 16 16 16-7.184 16-16-7.184-16-16-16zM736 632c-17.648 0-32-14.352-32-32s14.352-32 32-32 32 14.352 32 32-14.352 32-32 32z m0-48a16.016 16.016 0 0 0 0 32 16.016 16.016 0 0 0 0-32zM736 808c-17.648 0-32-14.352-32-32s14.352-32 32-32 32 14.352 32 32-14.352 32-32 32z m0-48a16.016 16.016 0 0 0 0 32 16.016 16.016 0 0 0 0-32zM168 792C110.656 792 64 745.344 64 688s46.656-104 104-104S272 630.656 272 688s-46.656 104-104 104z m0-192C119.472 600 80 639.472 80 688s39.472 88 88 88S256 736.528 256 688s-39.472-88-88-88z" fill="#263238" p-id="2689"></path><path d="M168 744C137.12 744 112 718.88 112 688s25.12-56 56-56S224 657.12 224 688s-25.12 56-56 56z m0-96C145.952 648 128 665.952 128 688s17.952 40 40 40S208 710.048 208 688s-17.952-40-40-40z" fill="#263238" p-id="2690"></path><path d="M104 760a8 8 0 0 1-5.664-13.648l128-128a8 8 0 0 1 11.312 11.312l-128 128a7.968 7.968 0 0 1-5.648 2.336z" fill="#263238" p-id="2691"></path><path d="M232 760a8.032 8.032 0 0 1-5.664-2.336l-128-128a8 8 0 0 1 11.312-11.312l128 128a8 8 0 0 1-5.648 13.648z" fill="#263238" p-id="2692"></path><path d="M256 824H80c-26.464 0-48-21.536-48-48v-176c0-26.464 21.536-48 48-48h176c26.464 0 48 21.536 48 48v176c0 26.464-21.536 48-48 48z m-176-256c-17.648 0-32 14.352-32 32v176c0 17.648 14.352 32 32 32h176c17.648 0 32-14.352 32-32v-176c0-17.648-14.352-32-32-32H80z" fill="#263238" p-id="2693"></path><path d="M344 872h-240c-13.232 0-24-10.768-24-24v-32a8 8 0 0 1 16 0v32a8 8 0 0 0 8 8H336v-336H104a8 8 0 0 0-8 8v32a8 8 0 0 1-16 0v-32c0-13.232 10.768-24 24-24h240a8 8 0 0 1 8 8v352a8 8 0 0 1-8 8zM936 392a8 8 0 0 1-5.664-13.648L972.688 336l-42.336-42.336a8 8 0 0 1 11.312-11.312l48 48a8 8 0 0 1 0 11.312l-48 48a8.032 8.032 0 0 1-5.664 2.336z" fill="#263238" p-id="2694"></path><path d="M984 344h-112a8 8 0 0 1 0-16h112a8 8 0 0 1 0 16zM936 744a8 8 0 0 1-5.664-13.648L972.688 688l-42.336-42.336a8 8 0 0 1 11.312-11.312l48 48a8 8 0 0 1 0 11.312l-48 48a8.032 8.032 0 0 1-5.664 2.336z" fill="#263238" p-id="2695"></path><path d="M984 696h-112a8 8 0 0 1 0-16h112a8 8 0 0 1 0 16zM224 952h-16a8 8 0 0 1 0-16h16a8 8 0 0 1 0 16zM496 952H256a8 8 0 0 1 0-16h240a8 8 0 0 1 0 16z" fill="#263238" p-id="2696"></path><path d="M816 88h-16a8 8 0 0 1 0-16h16a8 8 0 0 1 0 16z" fill="#263238" p-id="2697"></path><path d="M768 88H528a8 8 0 0 1 0-16h240a8 8 0 0 1 0 16z" fill="#263238" p-id="2698"></path></svg>