<?xml version="1.0" standalone="no"?><!DOCTYPE svg PUBLIC "-//W3C//DTD SVG 1.1//EN" "http://www.w3.org/Graphics/SVG/1.1/DTD/svg11.dtd"><svg t="1574238116469" class="icon" viewBox="0 0 1024 1024" version="1.1" xmlns="http://www.w3.org/2000/svg" p-id="2236" xmlns:xlink="http://www.w3.org/1999/xlink" width="200" height="200"><defs><style type="text/css"></style></defs><path d="M512 512m-512 0a512 512 0 1 0 1024 0 512 512 0 1 0-1024 0Z" fill="#FEC43C" p-id="2237"></path><path d="M1013.76 408.576C965.632 175.104 759.808 0 512 0 229.376 0 0 229.376 0 512c0 123.904 44.032 236.544 116.736 324.608C203.776 884.736 303.104 911.36 409.6 911.36c301.056 0 550.912-217.088 604.16-502.784z" fill="#FFD73A" p-id="2238"></path><path d="M296.96 337.92m-92.16 0a92.16 92.16 0 1 0 184.32 0 92.16 92.16 0 1 0-184.32 0Z" fill="#873A18" p-id="2239"></path><path d="M727.04 337.92m-92.16 0a92.16 92.16 0 1 0 184.32 0 92.16 92.16 0 1 0-184.32 0Z" fill="#873A18" p-id="2240"></path><path d="M512 849.92c-84.992 0-153.6-68.608-153.6-153.6V583.68c0-84.992 68.608-153.6 153.6-153.6s153.6 68.608 153.6 153.6v112.64c0 84.992-68.608 153.6-153.6 153.6z" fill="#873A18" p-id="2241"></path><path d="M512 849.92c80.896 0 146.432-62.464 152.576-141.312-16.384-24.576-45.056-41.984-77.824-41.984-30.72 0-58.368 15.36-75.776 38.912-16.384-23.552-44.032-38.912-75.776-38.912-32.768 0-60.416 16.384-77.824 41.984C365.568 787.456 431.104 849.92 512 849.92z" fill="#F44444" p-id="2242"></path></svg>