<?xml version="1.0" standalone="no"?><!DOCTYPE svg PUBLIC "-//W3C//DTD SVG 1.1//EN" "http://www.w3.org/Graphics/SVG/1.1/DTD/svg11.dtd"><svg t="1574228206165" class="icon" viewBox="0 0 1135 1024" version="1.1" xmlns="http://www.w3.org/2000/svg" p-id="1031" xmlns:xlink="http://www.w3.org/1999/xlink" width="221.6796875" height="200"><defs><style type="text/css"></style></defs><path d="M353.093818 384.279273H166.167273a36.864 36.864 0 0 1-36.864-36.864v-0.744728a36.864 36.864 0 0 1 36.864-36.864h37.608727v-18.990545a36.864 36.864 0 0 1 36.864-36.864h37.981091a36.864 36.864 0 0 1 36.864 36.864v18.990545h37.608727a36.864 36.864 0 0 1 36.864 36.864v0.744728a36.864 36.864 0 0 1-36.864 36.864z" fill="#3EBBDD" p-id="1032"></path><path d="M353.093818 402.897455H166.185891a55.538036 55.538036 0 0 1-55.482182-55.482182c0-31.3344 24.892509-56.226909 55.482182-56.226909l18.990545-0.372364a55.556655 55.556655 0 0 1 55.482182-55.482182h37.962473a55.538036 55.538036 0 0 1 55.482182 55.482182v0.372364h18.990545a55.538036 55.538036 0 0 1 55.482182 55.482181c0 31.3344-24.892509 56.226909-55.482182 56.22691z m-186.926545-74.472728a18.245818 18.245818 0 0 0-18.245818 18.245818c0 10.817164 8.173382 18.990545 18.245818 18.990546h186.907927a18.245818 18.245818 0 0 0 18.245818-18.245818c0-10.817164-8.173382-18.990545-18.245818-18.990546h-37.608727a18.618182 18.618182 0 0 1-18.618182-18.618182v-18.990545a18.245818 18.245818 0 0 0-18.245818-18.245818h-37.962473a18.245818 18.245818 0 0 0-18.245818 18.245818v18.990545a18.618182 18.618182 0 0 1-18.618182 18.618182h-37.608727z" fill="#000000" p-id="1033"></path><path d="M930.443636 216.715636h-187.298909a55.296 55.296 0 0 1-55.296-55.296v-1.117091a55.296 55.296 0 0 1 55.296-55.296h19.176728V85.829818a55.296 55.296 0 0 1 55.296-55.296h38.353454a55.296 55.296 0 0 1 55.296 55.296v19.176727h19.176727a55.296 55.296 0 0 1 55.296 55.296v1.117091a55.296 55.296 0 0 1-55.296 55.296z" fill="#3EBBDD" p-id="1034"></path><path d="M930.443636 235.333818H743.126109a74.007273 74.007273 0 0 1-73.914182-73.914182c0-41.872291 33.158982-75.031273 73.914182-75.031272l0.558546-0.558546a74.007273 74.007273 0 0 1 73.914181-73.914182h38.372073a74.007273 74.007273 0 0 1 73.914182 73.914182l0.558545 0.558546a74.007273 74.007273 0 0 1 73.914182 73.914181c0 41.872291-33.158982 75.031273-73.914182 75.031273z m-187.298909-111.709091c-20.219345 0-36.677818 16.458473-36.677818 36.677818 0 21.336436 16.458473 37.794909 36.677818 37.79491h187.317528c20.219345 0 36.677818-16.458473 36.677818-36.677819 0-21.336436-16.458473-37.794909-36.677818-37.794909h-19.176728a18.618182 18.618182 0 0 1-18.618182-18.618182V85.829818c0-20.219345-16.458473-36.677818-36.677818-36.677818h-38.372072c-20.219345 0-36.677818 16.458473-36.677819 36.677818v19.176727a18.618182 18.618182 0 0 1-18.618181 18.618182h-19.176728zM650.612364 980.061091h37.236363v37.236364h-37.236363z" fill="#000000" p-id="1035"></path><path d="M948.503273 421.515636h37.236363v37.236364h-37.236363zM576.139636 309.806545h37.236364v37.236364h-37.236364zM464.430545 160.861091h37.236364v37.236364h-37.236364zM129.303273 495.988364h37.236363v37.236363h-37.236363zM166.539636 105.006545h37.236364v37.236364h-37.236364z" fill="#FF8000" p-id="1036"></path><path d="M147.921455 980.061091c0-236.506764 191.711418-428.218182 428.218181-428.218182s428.218182 191.711418 428.218182 428.218182c0 6.237091-0.2048 12.436945-0.465454 18.618182h74.472727c0.223418-6.181236 0.465455-12.381091 0.465454-18.618182 0-277.634327-225.056582-502.690909-502.690909-502.690909s-502.690909 225.056582-502.690909 502.690909c0 6.237091 0.242036 12.436945 0.465455 18.618182h74.472727a441.381236 441.381236 0 0 1-0.465454-18.618182z" fill="#ED1C24" p-id="1037"></path><path d="M576.139636 551.842909c-236.506764 0-428.218182 191.711418-428.218181 428.218182 0 6.237091 0.2048 12.436945 0.465454 18.618182h74.938182c-0.316509-6.199855-0.930909-12.325236-0.930909-18.618182 0-195.360582 158.384873-353.745455 353.745454-353.745455s353.745455 158.384873 353.745455 353.745455c0 6.292945-0.6144 12.418327-0.930909 18.618182h74.938182c0.260655-6.181236 0.465455-12.381091 0.465454-18.618182 0-236.506764-191.711418-428.218182-428.218182-428.218182z" fill="#3EBBDD" p-id="1038"></path><path d="M296.866909 980.061091c0-154.233018 125.039709-279.272727 279.272727-279.272727 154.233018 0 279.272727 125.039709 279.272728 279.272727 0 6.292945-0.539927 12.436945-0.930909 18.618182h74.472727c0.316509-6.199855 0.930909-12.325236 0.930909-18.618182 0-195.360582-158.384873-353.745455-353.745455-353.745455s-353.745455 158.384873-353.745454 353.745455c0 6.292945 0.6144 12.418327 0.930909 18.618182h74.472727c-0.390982-6.181236-0.930909-12.325236-0.930909-18.618182z" fill="#FF8000" p-id="1039"></path><path d="M1097.448727 980.061091c0-287.446109-233.862982-521.309091-521.309091-521.309091s-521.309091 233.862982-521.309091 521.309091h-37.236363v37.236364H613.357382v-37.236364h-297.890909c0-143.732364 116.922182-260.654545 260.654545-260.654546s260.654545 116.922182 260.654546 260.654546h-111.709091v37.236364h409.581382v-37.236364h-37.199128z m-521.309091-297.890909c-164.2496 0-297.890909 133.641309-297.890909 297.890909h-37.236363c0-184.785455 150.341818-335.127273 335.127272-335.127273s335.127273 150.341818 335.127273 335.127273h-37.236364c0-164.2496-133.641309-297.890909-297.890909-297.890909z m0-74.472727c-205.321309 0-372.363636 167.042327-372.363636 372.363636h-37.236364c0-225.857164 183.742836-409.6 409.6-409.6s409.6 183.742836 409.6 409.6h-37.236363c0-205.321309-167.042327-372.363636-372.363637-372.363636z m446.836364 372.363636c0-246.3744-200.461964-446.836364-446.836364-446.836364s-446.836364 200.461964-446.836363 446.836364h-37.236364c0-266.910255 217.143855-484.072727 484.072727-484.072727s484.072727 217.162473 484.072728 484.072727h-37.236364z" fill="#000000" p-id="1040"></path></svg>