<?xml version="1.0" standalone="no"?><!DOCTYPE svg PUBLIC "-//W3C//DTD SVG 1.1//EN" "http://www.w3.org/Graphics/SVG/1.1/DTD/svg11.dtd"><svg t="1574238017780" class="icon" viewBox="0 0 1211 1024" version="1.1" xmlns="http://www.w3.org/2000/svg" p-id="4222" xmlns:xlink="http://www.w3.org/1999/xlink" width="236.5234375" height="200"><defs><style type="text/css"></style></defs><path d="M435.2 515.413333c0 131.413333 107.52 238.933333 238.933333 238.933334s238.933333-107.52 238.933334-238.933334-107.52-238.933333-238.933334-238.933333-238.933333 107.52-238.933333 238.933333z" fill="#E9EAEB" p-id="4223"></path><path d="M435.2 600.746667h256v51.2l187.733333-136.533334-187.733333-136.533333v51.2h-256" fill="#A3D4FF" p-id="4224"></path><path d="M674.133333 686.08v-68.266667h-273.066666v-34.133333h307.2v35.84l141.653333-104.106667-141.653333-102.4v34.133334h-273.066667v-34.133334h238.933333v-66.56l233.813334 168.96z" fill="#2A5082" p-id="4225"></path><path d="M605.866667 498.346667h34.133333v34.133333h-34.133333zM537.6 498.346667h34.133333v34.133333h-34.133333zM537.6 327.68h34.133333v34.133333h-34.133333zM537.6 669.013333h34.133333v34.133334h-34.133333z" fill="#2A5082" p-id="4226"></path><path d="M674.133333 952.32c-109.226667 0-213.333333-39.253333-295.253333-112.64l22.186667-25.6c75.093333 66.56 172.373333 104.106667 273.066666 104.106667v34.133333zM1117.866667 508.586667h-34.133334c0-196.266667-139.946667-366.933333-334.506666-402.773334l6.826666-34.133333c209.92 39.253333 361.813333 223.573333 361.813334 436.906667zM899.413333 899.413333l-17.066666-29.013333c81.92-47.786667 146.773333-122.88 180.906666-211.626667l32.426667 11.946667c-37.546667 95.573333-107.52 175.786667-196.266667 228.693333z" fill="#BCC0C4" p-id="4227"></path><path d="M788.48 865.28l-11.946667-32.426667c129.706667-47.786667 216.746667-174.08 216.746667-312.32 0-182.613333-148.48-332.8-332.8-332.8-83.626667 0-163.84 30.72-225.28 88.746667l-23.893333-25.6C479.573333 187.733333 568.32 153.6 660.48 153.6c201.386667 0 366.933333 163.84 366.933333 366.933333 1.706667 153.6-95.573333 291.84-238.933333 344.746667z" fill="#BCC0C4" p-id="4228"></path><path d="M366.933333 413.013333h34.133334v34.133334h-34.133334zM332.8 447.146667h-40.96l-102.4-102.4H110.933333v-34.133334h92.16l102.4 102.4h27.306667zM110.933333 498.346667h392.533334v34.133333h-392.533334zM186.026667 720.213333H110.933333v-34.133333h61.44l102.4-102.4h126.293334v34.133333h-112.64zM203.093333 873.813333H110.933333v-34.133333h78.506667l170.666667-170.666667h143.36v34.133334h-129.706667zM503.466667 361.813333h-143.36l-136.533334-136.533333H110.933333v-34.133333h126.293334l136.533333 136.533333h129.706667z" fill="#2A5082" p-id="4229"></path></svg>