<?xml version="1.0" standalone="no"?><!DOCTYPE svg PUBLIC "-//W3C//DTD SVG 1.1//EN" "http://www.w3.org/Graphics/SVG/1.1/DTD/svg11.dtd"><svg t="1574237839395" class="icon" viewBox="0 0 1024 1024" version="1.1" xmlns="http://www.w3.org/2000/svg" p-id="1206" xmlns:xlink="http://www.w3.org/1999/xlink" width="200" height="200"><defs><style type="text/css"></style></defs><path d="M445.3888 611.09248m-308.47488 0a308.47488 308.47488 0 1 0 616.94976 0 308.47488 308.47488 0 1 0-616.94976 0Z" fill="#FFEC43" p-id="1207"></path><path d="M445.39392 927.28832c-174.35648 0-316.19584-141.83936-316.19584-316.19584s141.83936-316.19584 316.19584-316.19584 316.19584 141.83936 316.19584 316.19584-141.83936 316.19584-316.19584 316.19584z m0-616.95488c-165.83168 0-300.75392 134.92224-300.75392 300.75392s134.92224 300.75392 300.75392 300.75392 300.75392-134.92224 300.75392-300.75392-134.92224-300.75392-300.75392-300.75392z" fill="#6B0204" p-id="1208"></path><path d="M323.57376 665.33888m-31.09888 0a31.09888 31.09888 0 1 0 62.19776 0 31.09888 31.09888 0 1 0-62.19776 0Z" fill="#FFEB43" p-id="1209"></path><path d="M323.57376 702.87872c-20.70016 0-37.53984-16.83968-37.53984-37.53984 0-20.70016 16.83968-37.53984 37.53984-37.53984s37.53984 16.83968 37.53984 37.53984c0 20.70016-16.83968 37.53984-37.53984 37.53984z m0-62.19776a24.69376 24.69376 0 0 0-24.66304 24.65792 24.69376 24.69376 0 0 0 24.66304 24.66304 24.69376 24.69376 0 0 0 24.66304-24.66304 24.69376 24.69376 0 0 0-24.66304-24.65792z" fill="#6B0306" p-id="1210"></path><path d="M252.38528 492.7232m-19.69152 0a19.69152 19.69152 0 1 0 39.38304 0 19.69152 19.69152 0 1 0-39.38304 0Z" fill="#FFEB43" p-id="1211"></path><path d="M252.38528 518.8608c-14.4128 0-26.13248-11.71968-26.13248-26.13248s11.71968-26.13248 26.13248-26.13248 26.13248 11.71968 26.13248 26.13248-11.71968 26.13248-26.13248 26.13248z m0-39.38816a13.27616 13.27616 0 0 0-13.25568 13.25568c0 7.30624 5.94944 13.25568 13.25568 13.25568s13.25568-5.94944 13.25568-13.25568a13.27616 13.27616 0 0 0-13.25568-13.25568z" fill="#6B0306" p-id="1212"></path><path d="M501.00736 630.00576m-12.86144 0a12.86144 12.86144 0 1 0 25.72288 0 12.86144 12.86144 0 1 0-25.72288 0Z" fill="#FFEB43" p-id="1213"></path><path d="M501.01248 649.30304a19.328 19.328 0 0 1-19.3024-19.3024 19.32288 19.32288 0 0 1 19.3024-19.29216 19.31264 19.31264 0 0 1 19.29216 19.29216c0 10.63936-8.6528 19.3024-19.29216 19.3024z m0-25.71264a6.4256 6.4256 0 1 0 0 12.8512 6.4256 6.4256 0 0 0 0-12.8512z" fill="#6B0306" p-id="1214"></path><path d="M381.70624 405.3504m-11.63264 0a11.63264 11.63264 0 1 0 23.26528 0 11.63264 11.63264 0 1 0-23.26528 0Z" fill="#FFEB43" p-id="1215"></path><path d="M381.71136 423.424c-9.9584 0-18.06848-8.11008-18.06848-18.06848s8.11008-18.06848 18.06848-18.06848 18.06848 8.11008 18.06848 18.06848-8.11008 18.06848-18.06848 18.06848z m0-23.26528a5.19168 5.19168 0 1 0 0 10.38336 5.19168 5.19168 0 0 0 0-10.38336z" fill="#6B0306" p-id="1216"></path><path d="M577.31584 446.592a13.06624 13.06624 0 0 0-10.51648-8.53504l-32.11264-4.70016-13.94688-28.5184c-2.17088-4.44416-6.84544-7.30624-11.90912-7.30624-5.05344 0-9.73312 2.8672-11.90912 7.30624l-13.94688 28.5184-32.10752 4.7104a13.02016 13.02016 0 0 0-10.53184 8.53504 12.49792 12.49792 0 0 0 3.10784 13.11744l23.5776 23.20384-5.46304 32.14336c-0.82432 4.81792 1.32608 9.76896 5.4784 12.61056 3.97824 2.688 9.55392 2.9952 13.85472 0.73216l27.94496-14.8224 27.96032 14.83776a13.55776 13.55776 0 0 0 13.86496-0.74752c4.13184-2.83648 6.27712-7.7824 5.45792-12.5952l-5.46304-32.14336 23.5776-23.20384a12.52864 12.52864 0 0 0 3.08224-13.14304z" fill="#FFBD00" p-id="1217"></path><path d="M543.104 536.42752a20.06016 20.06016 0 0 1-9.30816-2.31424l-24.96-13.24032-24.92416 13.21472c-6.28736 3.29728-14.68928 2.83136-20.47488-1.08032-6.26176-4.29056-9.46688-11.74528-8.22272-19.04128l4.90496-28.81024-21.19168-20.84864a18.87744 18.87744 0 0 1-4.66432-19.82976 19.44064 19.44064 0 0 1 15.68256-12.78976l28.7488-4.1984 12.43648-25.47712c3.27168-6.64064 10.22464-10.91584 17.70496-10.91584 7.49568 0 14.4384 4.29056 17.69472 10.91584l12.45184 25.47712 28.7488 4.1984a19.5328 19.5328 0 0 1 15.6672 12.75392 18.95424 18.95424 0 0 1-4.65408 19.88096L557.568 485.1712l4.90496 28.82048c1.23392 7.296-1.97632 14.74048-8.16128 18.99008a19.90656 19.90656 0 0 1-11.20768 3.44576z m-34.26816-30.1312l30.98624 16.4352c2.29888 1.18272 5.12 1.02912 7.22944-0.38912 2.03776-1.39776 3.11808-3.83488 2.71872-6.18496l-6.03648-35.46112 25.97888-25.55392c1.74592-1.72032 2.32448-4.13696 1.52064-6.44096a6.63552 6.63552 0 0 0-5.37088-4.26496l-35.46112-5.20704-15.44192-31.5648c-2.18624-4.47488-10.0352-4.49024-12.27264 0.01024l-15.41632 31.54944-35.47648 5.20704a6.6048 6.6048 0 0 0-5.38112 4.29056c-0.7936 2.2784-0.21504 4.66432 1.54624 6.4l25.96864 25.55392-6.01088 35.46112c-0.41472 2.35008 0.68096 4.79232 2.75456 6.22592 1.90976 1.26976 5.0688 1.4592 7.22944 0.33792l30.93504-16.40448z" fill="#6B0204" p-id="1218"></path><path d="M543.0272 328.09472c96.59392 49.50016 137.47712 165.22752 124.61056 280.50432-28.07296 251.58656-325.77024 278.72768-355.61984 268.71808a297.38496 297.38496 0 0 0 136.01792 32.78848c165.00224 0 298.76224-133.76 298.76224-298.76224 0-131.77856-85.36064-243.54816-203.77088-283.24864z" fill="#FFC700" p-id="1219"></path><path d="M677.30432 597.16608m-25.72288 0a25.72288 25.72288 0 1 0 51.44576 0 25.72288 25.72288 0 1 0-51.44576 0Z" fill="#FFEB43" p-id="1220"></path><path d="M677.2992 629.33504c-17.73056 0-32.1536-14.4384-32.1536-32.16896s14.42304-32.16896 32.1536-32.16896 32.16896 14.4384 32.16896 32.16896-14.4384 32.16896-32.16896 32.16896z m0-51.456a19.30752 19.30752 0 0 0-19.2768 19.29216 19.30752 19.30752 0 0 0 19.2768 19.29216 19.31264 19.31264 0 0 0 19.29216-19.29216 19.31776 19.31776 0 0 0-19.29216-19.29216z" fill="#6B0306" p-id="1221"></path><path d="M383.17056 232.1408c26.31168-5.8112 53.56544-9.10336 81.62816-9.10336 208.33792 0 377.23136 168.89344 377.23136 377.23136 0 115.79392-52.28032 219.27936-134.4 288.47616l10.496 21.248c89.61024-73.38496 146.82112-184.86272 146.82112-309.72416 0-220.99968-179.15392-400.1536-400.1536-400.1536a401.0496 401.0496 0 0 0-92.12416 10.7776l10.50112 21.248z" fill="#6B0204" p-id="1222"></path><path d="M337.26464 186.14272m-81.7152 0a81.7152 81.7152 0 1 0 163.4304 0 81.7152 81.7152 0 1 0-163.4304 0Z" fill="#FFEC43" p-id="1223"></path><path d="M337.26976 275.57376c-49.32096 0-89.43616-40.1152-89.43616-89.43616 0-49.31072 40.1152-89.42592 89.43616-89.42592s89.43616 40.1152 89.43616 89.42592c0 49.32096-40.1152 89.43616-89.43616 89.43616z m0-163.41504c-40.79616 0-73.99424 33.18784-73.99424 73.984s33.19808 73.99424 73.99424 73.99424 73.99424-33.19808 73.99424-73.99424-33.19808-73.984-73.99424-73.984z" fill="#6B0204" p-id="1224"></path><path d="M361.1904 115.86048c23.96672 12.17536 34.10944 40.64256 30.91968 68.99712-6.9632 61.88544-80.82432 68.56192-88.23296 66.0992a74.28608 74.28608 0 0 0 33.74592 8.064c40.93952 0 74.12736-32.90112 74.12736-73.48736 0-32.41472-21.18144-59.90912-50.56-69.67296z" fill="#FFC700" p-id="1225"></path><path d="M951.50592 474.9312m-40.45824 0a40.45824 40.45824 0 1 0 80.91648 0 40.45824 40.45824 0 1 0-80.91648 0Z" fill="#FFC700" p-id="1226"></path><path d="M951.50592 523.1104c-26.5728 0-48.1792-21.6064-48.1792-48.1792s21.6064-48.18944 48.1792-48.18944 48.18944 21.61664 48.18944 48.18944-21.61664 48.1792-48.18944 48.1792z m0-80.9216a32.77824 32.77824 0 0 0-32.73216 32.74752 32.77312 32.77312 0 0 0 32.73216 32.73216c18.05824 0 32.74752-14.68928 32.74752-32.73216a32.77824 32.77824 0 0 0-32.74752-32.74752z" fill="#6C0000" p-id="1227"></path><path d="M41.56928 418.39616m-30.34624 0a30.34624 30.34624 0 1 0 60.69248 0 30.34624 30.34624 0 1 0-60.69248 0Z" fill="#6C0000" p-id="1228"></path><path d="M725.37088 882.89792m-30.34624 0a30.34624 30.34624 0 1 0 60.69248 0 30.34624 30.34624 0 1 0-60.69248 0Z" fill="#6C0000" p-id="1229"></path><path d="M777.3184 207.53408m-30.34624 0a30.34624 30.34624 0 1 0 60.69248 0 30.34624 30.34624 0 1 0-60.69248 0Z" fill="#6C0000" p-id="1230"></path></svg>